<svg width="1015" height="871" viewBox="0 0 1015 871" fill="none" xmlns="http://www.w3.org/2000/svg">
<path d="M336.43 41.11C336.39 41.02 336.36 40.97 336.32 40.89C336.83 42.5 337.39 43.16 336.43 41.11Z" fill="white"/>
<path d="M343.35 43.91C349.27 42.8 347.45 37.33 344.41 33.76C341.43 30.15 342.97 31.04 337.91 33.64C335.26 34.99 335.58 38.24 336.17 40.38C337.17 41.73 339.77 44.59 343.35 43.91Z" fill="white"/>
<path d="M336.32 40.89C336.27 40.73 336.22 40.56 336.17 40.38C335.55 39.54 335.55 39.32 336.32 40.89Z" fill="white"/>
<path d="M1002.32 728.2C994.1 715.46 981.91 706.16 965.76 700.28C976.39 694.84 984.44 688.83 989.9 682.24C999.67 670.5 1004.56 654.97 1004.56 635.64C1004.56 616.31 999.72 600.78 990.03 587.32C973.94 565.42 946.59 554.18 907.99 553.61H755.02V870.12H737.59V813.23H562.36V731.84H716.12V676.87H562.36V609.66H729.86V553.61H497.72V870.12H469.42L469.12 870.11V553.61H403.41V869.33C403.41 869.33 301.81 592.43 297.41 577.71L296.24 572.91C291.21 552.28 293.1 530.53 301.84 511.18C342.24 421.72 493.45 228.75 781.75 155.9C775.58 130.19 575.47 202.69 542.68 218.72C537.68 221.17 544 216.48 530.52 215.88C522.9 215.54 518.3 225.09 505.61 224.9C489.9 224.69 469.28 213.16 457.86 209.55C439.37 195.97 419.41 162.71 405.42 142.09C391.43 121.47 376.71 119.2 374.3 117.34C371.89 115.48 387.92 167.13 392.95 182.31C398.03 197.46 413.66 205.1 425.8 221.95C437.88 238.83 481.94 245.31 494.71 241.05C507.53 236.76 505.6 237.03 508.02 241.61C510.44 246.18 468.27 267.47 468.27 267.47C468.27 267.47 463.62 259.36 458.85 261.7C454.14 264.01 440.15 269.75 438.01 272.19C435.92 274.6 406.75 255.02 392.85 247C378.95 238.98 375.46 215.63 372.5 208.28C369.49 200.96 374.61 177.26 372.79 167.74C370.97 158.21 359.05 136.37 359.24 125.51C359.38 117.18 378.96 96.07 385.53 87.46C387.24 88.39 405.49 45.36 400.07 37.27C396.96 30.46 395.01 24.47 390.99 19.04C386.97 13.61 383.12 6.87998 374.37 9.79998C365.55 12.74 359.29 18.74 352.94 9.45001C346.6 0.170008 345.08 10.96 345.08 10.96C345.08 10.96 346.88 15.3 351.82 19.5C356.76 23.7 368.37 20.36 373.94 18.31C379.45 16.29 379.07 18.41 383.89 22.79C385.78 24.47 391 31.22 392.29 33.93C393.34 36.18 390.33 45.77 380.56 51.63C377.57 53.42 382.58 56.26 384.06 57.17C394.59 49.63 394.46 43.7 394.77 44.97C395.48 54.56 384.62 69.82 380.95 83.31C376.14 81.32 370.37 75.49 364 64.09C354.61 47.43 341.01 66.6 341.01 66.6C341.01 66.6 326.75 68.71 316.51 33.42C315.25 28.88 329.85 14.83 340.81 8.79C346.94 5.09 347.09 -2.60001 337.54 2.33999C327.99 7.27999 263.97 34.71 283.68 78.83C303.39 122.96 302.32 96.76 322.04 102.66C341.81 108.53 328.33 110.77 328.33 110.77C328.33 110.77 306.13 122.48 303.29 124.96C300.4 127.47 277.93 150.71 248.73 183.51C225.22 209.92 216.46 215.66 200.7 232.65C188.99 245.26 184.32 286.04 133.95 321.84C83.64 357.6 43.06 319.31 33.24 299.68C26.86 286.95 12.53 264.33 17.24 233.49C27.96 163.74 128.02 100.59 163.68 150.26C182.12 175.91 164.8 186.03 153.57 191.57C142.34 197.12 125.17 188.87 121.54 189.3C117.85 189.76 112.22 194.95 122.38 206.97C132.59 218.96 145.82 215.72 159.21 208.18C172.66 200.61 199.6 183.13 178.47 141.99C157.34 100.85 106.53 111.21 78.97 126.84C51.4 142.47 -36.47 203.23 17.32 306.08C57.69 378.71 152.41 363.61 198.22 281.76C205.6 279.63 221.52 306.86 249.89 346.95C264.5 367.67 256.09 368.4 242.15 425.18C242.19 435.93 224.58 446.18 224.58 446.18C224.58 446.18 226.44 458.21 237.67 457.68C248.96 457.12 257.95 461.27 265.94 465.41C273.44 469.36 233.72 510.86 211.92 567.43L103.87 870.13H173.05L194.51 805.06H311.08L331.97 870.13H403.69L497.71 870.11V870.13H755.01H897.63C913.71 870.13 928.62 868.7 942.36 865.84C956.1 862.98 968.02 857.68 978.12 849.95C987.09 843.22 994.56 834.92 1000.54 825.04C1009.94 810.15 1014.63 793.33 1014.63 774.58C1014.63 755.83 1010.52 740.94 1002.3 728.2H1002.32ZM258.69 427.04C257.25 422.97 263.15 412.62 270.75 399.94C283.26 379.11 300.39 352.01 297.16 336.18C291.91 310.72 279.49 256.83 277.46 250.97C275.43 245.11 289.68 235.81 287.84 240.03C285.99 244.24 296.39 273.08 296.39 273.08C296.39 273.08 336 263.05 335.96 248.24C335.97 233.4 319.59 212.31 317.91 200.89C316.23 189.47 327.14 201.56 327.63 207.24C328.19 212.89 346.19 234.06 355.83 256.19C365.47 278.32 434.38 288.5 434.38 288.5C434.38 288.5 433.36 289.41 431.39 290.96C412.64 305.81 387.76 327.33 364.42 349.44C361.3 352.2 357.34 347 356.73 344.24C353.03 328.06 362.41 298.47 360.21 289.18C357.95 279.92 346.01 263.84 340.44 263.85C334.87 263.85 297.69 277.68 298.53 286.03C299.43 294.35 299.42 309.6 304.74 308.84C310.06 308.07 327.69 305.45 330.24 310.93C332.78 316.41 349.06 364.74 339.77 375.17C319.58 397.84 283.34 451.69 278.99 449.82C274.64 447.95 262.54 437.78 258.71 427.04H258.69ZM212.52 750.54L253.6 625.99L293.59 750.54H212.52ZM818.16 608.59H887.02C902.18 608.59 914.65 610.24 924.43 613.53C935.76 618.25 941.43 627.99 941.43 642.74C941.43 656.05 937.14 665.32 928.57 670.55C920 675.78 908.84 678.39 895.1 678.39H818.17V608.6L818.16 608.59ZM927.06 809.59C919.42 813.31 908.73 815.17 895.01 815.17H818.16V730.78H896.07C909.66 730.92 920.2 732.71 927.7 736.15C941.14 742.31 947.87 753.62 947.87 770.08C947.87 789.55 940.93 802.72 927.07 809.59H927.06Z" fill="white"/>
</svg>
