<svg width="93" height="41" viewBox="0 0 93 41" fill="none" xmlns="http://www.w3.org/2000/svg">
<mask id="mask0_6_42" style="mask-type:luminance" maskUnits="userSpaceOnUse" x="7" y="13" width="8" height="11">
<path d="M9.80001 13.7L7.10001 19L9.80001 23.3L14.4 16.6L9.80001 13.7Z" fill="white"/>
</mask>
<g mask="url(#mask0_6_42)">
<path d="M6.5 23.3L7.1 13.2L15 13.7L14.4 23.8L6.5 23.3Z" fill="url(#paint0_linear_6_42)"/>
</g>
<mask id="mask1_6_42" style="mask-type:luminance" maskUnits="userSpaceOnUse" x="1" y="0" width="8" height="8">
<path d="M3.6 3.9L5 5.7L8.9 7.2L7.8 5.3L7.1 4.2L1.5 0L3.6 3.9Z" fill="white"/>
</mask>
<g mask="url(#mask1_6_42)">
<path d="M8.9 0H1.5V7.2H8.9V0Z" fill="url(#paint1_linear_6_42)"/>
</g>
<mask id="mask2_6_42" style="mask-type:luminance" maskUnits="userSpaceOnUse" x="14" y="11" width="9" height="13">
<path d="M14.4 16.6L16.9 24L22.7 23.9L18.5 16.9L16.1 11L14.4 16.6Z" fill="white"/>
</mask>
<g mask="url(#mask2_6_42)">
<path d="M11.2 11.9L22.2 8.89999L26 23.1L14.9 26.1L11.2 11.9Z" fill="url(#paint2_linear_6_42)"/>
</g>
<mask id="mask3_6_42" style="mask-type:luminance" maskUnits="userSpaceOnUse" x="11" y="3" width="3" height="4">
<path d="M11.4 5.10001L12.6 5.80001L13.3 6.10001L13.4 3.20001L11.4 5.10001Z" fill="white"/>
</mask>
<g mask="url(#mask3_6_42)">
<path d="M10.4 3.6L13.1 2.5L14.4 5.7L11.7 6.8L10.4 3.6Z" fill="url(#paint3_linear_6_42)"/>
</g>
<mask id="mask4_6_42" style="mask-type:luminance" maskUnits="userSpaceOnUse" x="8" y="16" width="9" height="16">
<path d="M9.79999 23.3L8.79999 29.4L15.4 31.1L16.9 24L14.4 16.6L9.79999 23.3Z" fill="white"/>
</mask>
<g mask="url(#mask4_6_42)">
<path d="M6.79999 30.8L8.99999 15.4L18.9 16.8L16.7 32.2L6.79999 30.8Z" fill="url(#paint4_linear_6_42)"/>
</g>
<mask id="mask5_6_42" style="mask-type:luminance" maskUnits="userSpaceOnUse" x="13" y="2" width="9" height="8">
<path d="M16 5.69999L13.6 9.49999L14.8 9.69999L16.8 6.29999L21.8 2.89999L16 5.69999Z" fill="white"/>
</mask>
<g mask="url(#mask5_6_42)">
<path d="M21.8 2.89999H13.6V9.69999H21.8V2.89999Z" fill="url(#paint5_linear_6_42)"/>
</g>
<mask id="mask6_6_42" style="mask-type:luminance" maskUnits="userSpaceOnUse" x="14" y="2" width="8" height="8">
<path d="M16.8 6.29999L14.8 9.69999L18.6 8.29999L19.9 6.59999L21.8 2.89999L16.8 6.29999Z" fill="white"/>
</mask>
<g mask="url(#mask6_6_42)">
<path d="M12.9 9.1L15.4 1L23.7 3.5L21.2 11.7L12.9 9.1Z" fill="url(#paint6_linear_6_42)"/>
</g>
<mask id="mask7_6_42" style="mask-type:luminance" maskUnits="userSpaceOnUse" x="1" y="0" width="7" height="6">
<path d="M7.1 4.2L7.8 5.2L7.6 2.9L1.5 0L7.1 4.2Z" fill="white"/>
</mask>
<g mask="url(#mask7_6_42)">
<path d="M7.8 0H1.5V5.2H7.8V0Z" fill="url(#paint7_linear_6_42)"/>
</g>
<mask id="mask8_6_42" style="mask-type:luminance" maskUnits="userSpaceOnUse" x="7" y="2" width="4" height="6">
<path d="M7.80001 5.19999L8.90001 7.19999L10.2 6.99999L7.60001 2.89999L7.80001 5.19999Z" fill="white"/>
</mask>
<g mask="url(#mask8_6_42)">
<path d="M10.2 2.89999H7.60001V7.19999H10.2V2.89999Z" fill="url(#paint8_linear_6_42)"/>
</g>
<mask id="mask9_6_42" style="mask-type:luminance" maskUnits="userSpaceOnUse" x="0" y="18" width="10" height="12">
<path d="M4.49999 18.4L0.899994 24.2V24.3L8.79999 29.4L9.79999 23.3L7.09999 19L4.49999 18.4Z" fill="white"/>
</mask>
<g mask="url(#mask9_6_42)">
<path d="M-3.89999 26.5L3.30001 14.5L14.6 21.2L7.50001 33.3L-3.89999 26.5Z" fill="url(#paint9_linear_6_42)"/>
</g>
<mask id="mask10_6_42" style="mask-type:luminance" maskUnits="userSpaceOnUse" x="6" y="29" width="11" height="12">
<path d="M6.20001 33.5L8.00001 40.4H8.10001L16.1 36L15.4 31.1L8.80001 29.4L6.20001 33.5Z" fill="white"/>
</mask>
<g mask="url(#mask10_6_42)">
<path d="M16.1 29.4H6.20001V40.4H16.1V29.4Z" fill="url(#paint10_linear_6_42)"/>
</g>
<mask id="mask11_6_42" style="mask-type:luminance" maskUnits="userSpaceOnUse" x="8" y="36" width="14" height="5">
<path d="M8.10001 40.4L15.7 40.5L21.3 37.1L16.1 36L8.10001 40.4Z" fill="white"/>
</mask>
<g mask="url(#mask11_6_42)">
<path d="M5.89999 37.6L16.5 29.7L23.4 38.9L12.8 46.8L5.89999 37.6Z" fill="url(#paint11_linear_6_42)"/>
</g>
<mask id="mask12_6_42" style="mask-type:luminance" maskUnits="userSpaceOnUse" x="15" y="23" width="9" height="15">
<path d="M16.9 24L15.4 31.1L16.1 36L21.3 37.1L23.4 31L22.7 23.9L16.9 24Z" fill="white"/>
</mask>
<g mask="url(#mask12_6_42)">
<path d="M23.4 23.9H15.4V37.1H23.4V23.9Z" fill="url(#paint12_linear_6_42)"/>
</g>
<mask id="mask13_6_42" style="mask-type:luminance" maskUnits="userSpaceOnUse" x="0" y="31" width="8" height="10">
<path d="M3.70001 37.6L8.00001 40.4L6.20001 33.5L0.100006 31.4L3.70001 37.6Z" fill="white"/>
</mask>
<g mask="url(#mask13_6_42)">
<path d="M-3.29999 32.9L6.60001 28.4L11.4 38.8L1.40001 43.4L-3.29999 32.9Z" fill="url(#paint13_linear_6_42)"/>
</g>
<mask id="mask14_6_42" style="mask-type:luminance" maskUnits="userSpaceOnUse" x="11" y="5" width="2" height="6">
<path d="M11.2 10.1L12.6 5.80001L11.4 5.10001L11.2 10.1Z" fill="white"/>
</mask>
<g mask="url(#mask14_6_42)">
<path d="M12.6 5.10001H11.2V10.1H12.6V5.10001Z" fill="url(#paint14_linear_6_42)"/>
</g>
<mask id="mask15_6_42" style="mask-type:luminance" maskUnits="userSpaceOnUse" x="6" y="5" width="11" height="12">
<path d="M11.2 10.1L10 9.89999L6.10001 12.7L9.80001 13.7L14.4 16.6L16.1 11L16 10.9L13 10.4L13.3 6.09999L12.6 5.79999L11.2 10.1Z" fill="white"/>
</mask>
<g mask="url(#mask15_6_42)">
<path d="M4 6.19999L15.7 3.89999L18 16.2L6.4 18.4L4 6.19999Z" fill="url(#paint15_linear_6_42)"/>
</g>
<mask id="mask16_6_42" style="mask-type:luminance" maskUnits="userSpaceOnUse" x="4" y="12" width="6" height="7">
<path d="M5.9 12.8L4.5 18.4L7.1 19L9.8 13.7L6.1 12.7L5.9 12.8Z" fill="white"/>
</mask>
<g mask="url(#mask16_6_42)">
<path d="M2 17.9L5.5 10.6L12.3 13.9L8.8 21.1L2 17.9Z" fill="url(#paint16_linear_6_42)"/>
</g>
<mask id="mask17_6_42" style="mask-type:luminance" maskUnits="userSpaceOnUse" x="0" y="24" width="9" height="10">
<path d="M0 31.2L0.1 31.4L6.2 33.5L8.8 29.4L0.9 24.3L0 31.2Z" fill="white"/>
</mask>
<g mask="url(#mask17_6_42)">
<path d="M-0.899994 33.4L0.100006 23.4L9.80001 24.4L8.80001 34.4L-0.899994 33.4Z" fill="url(#paint17_linear_6_42)"/>
</g>
<path d="M31.6 14.6H29.6V11.3H39.4C43.4 11.3 46.2 14.1 46.2 18.3C46.2 22.5 43.4 25.3 39.4 25.3H35.5V32.7H31.6V14.6ZM38.7 21.8C40.9 21.8 42.2 20.4 42.2 18.1C42.2 15.8 40.9 14.5 38.8 14.5H35.6V21.8H38.7Z" fill="white"/>
<path d="M55 16.9C59.4 16.9 61.8 20.1 61.8 24.2C61.8 24.7 61.7 25.6 61.7 25.6H51.1C51.4 28.3 53.4 29.7 55.7 29.7C58.2 29.7 60 28 60 28L61.6 30.6C59.9 32.1 57.7 32.9 55.4 32.9C50.3 32.9 47.2 29.2 47.2 24.9C47.2 20.2 50.4 16.9 55 16.9ZM57.9 22.9C57.8 21.1 56.6 19.8 55 19.8C53 19.8 51.7 21 51.2 22.9H57.9Z" fill="white"/>
<path d="M73.7 22.9H74.2V22.8C74.2 20.6 73.3 19.8 71.4 19.8C70.7 19.8 69.4 20 69.4 20.8V21.6H65.9V20C65.9 17.1 69.9 16.8 71.5 16.8C76.6 16.8 78.1 19.5 78.1 22.9V28.6C78.1 28.9 78.3 29.2 78.6 29.3H78.7H79.9V32.5H76.5C75.1 32.5 74.5 31.7 74.5 30.8C74.5 30.4 74.5 30.1 74.5 30.1H74.4C74.4 30.1 73.2 32.8 69.8 32.8C67.1 32.8 64.6 31.1 64.6 28C64.6 23.3 71.2 22.9 73.7 22.9ZM70.8 29.9C72.8 29.9 74.3 27.7 74.3 25.9V25.5H73.6C71.6 25.5 68.5 25.8 68.5 27.9C68.4 29 69.2 29.9 70.8 29.9Z" fill="white"/>
<path d="M83.5 21.1C83.6 20.8 83.3 20.5 83 20.4C82.9 20.4 82.9 20.4 82.8 20.4H81.6V17.2H85.1C86.5 17.2 87.1 17.8 87.1 19.1V20C87.1 20.3 87.1 20.6 87 21H87.1C87.8 18.8 89.6 17.1 92 17.1C92.2 17.1 92.5 17.1 92.7 17.2V21C92.4 21 92.1 20.9 91.8 20.9C89.8 20.9 88.1 22.2 87.6 24.1C87.4 24.9 87.3 25.8 87.3 26.6V32.7H83.5V21.1Z" fill="white"/>
<defs>
<linearGradient id="paint0_linear_6_42" x1="10.3996" y1="23.8702" x2="11.2736" y2="9.37297" gradientUnits="userSpaceOnUse">
<stop stop-color="#E2E555"/>
<stop offset="1" stop-color="#A5BD3C"/>
</linearGradient>
<linearGradient id="paint1_linear_6_42" x1="2.17355" y1="3.59407" x2="9.57657" y2="3.59407" gradientUnits="userSpaceOnUse">
<stop stop-color="#E2E555"/>
<stop offset="1" stop-color="#A5BD3C"/>
</linearGradient>
<linearGradient id="paint2_linear_6_42" x1="20.8799" y1="26.0775" x2="16.7497" y2="10.5553" gradientUnits="userSpaceOnUse">
<stop stop-color="#E2E555"/>
<stop offset="1" stop-color="#A5BD3C"/>
</linearGradient>
<linearGradient id="paint3_linear_6_42" x1="11.5347" y1="2.54182" x2="6.03694" y2="-10.83" gradientUnits="userSpaceOnUse">
<stop stop-color="#E2E555"/>
<stop offset="1" stop-color="#A5BD3C"/>
</linearGradient>
<linearGradient id="paint4_linear_6_42" x1="12.1109" y1="28.6579" x2="14.485" y2="11.7867" gradientUnits="userSpaceOnUse">
<stop stop-color="#E2E555"/>
<stop offset="1" stop-color="#A5BD3C"/>
</linearGradient>
<linearGradient id="paint5_linear_6_42" x1="13.5295" y1="6.32679" x2="21.7528" y2="6.32679" gradientUnits="userSpaceOnUse">
<stop stop-color="#E2E555"/>
<stop offset="1" stop-color="#A5BD3C"/>
</linearGradient>
<linearGradient id="paint6_linear_6_42" x1="20.7636" y1="-1.56825" x2="17.0114" y2="10.6894" gradientUnits="userSpaceOnUse">
<stop stop-color="#E2E555"/>
<stop offset="1" stop-color="#A5BD3C"/>
</linearGradient>
<linearGradient id="paint7_linear_6_42" x1="1.74148" y1="2.6229" x2="8.05556" y2="2.6229" gradientUnits="userSpaceOnUse">
<stop stop-color="#E2E555"/>
<stop offset="1" stop-color="#A5BD3C"/>
</linearGradient>
<linearGradient id="paint8_linear_6_42" x1="7.07525" y1="5.03548" x2="9.64949" y2="5.03548" gradientUnits="userSpaceOnUse">
<stop stop-color="#E2E555"/>
<stop offset="1" stop-color="#A5BD3C"/>
</linearGradient>
<linearGradient id="paint9_linear_6_42" x1="8.90903" y1="17.8088" x2="2.28108" y2="28.9405" gradientUnits="userSpaceOnUse">
<stop stop-color="#E2E555"/>
<stop offset="1" stop-color="#A5BD3C"/>
</linearGradient>
<linearGradient id="paint10_linear_6_42" x1="6.65974" y1="34.882" x2="16.6083" y2="34.882" gradientUnits="userSpaceOnUse">
<stop stop-color="#E2E555"/>
<stop offset="1" stop-color="#A5BD3C"/>
</linearGradient>
<linearGradient id="paint11_linear_6_42" x1="9.84199" y1="41.7694" x2="19.2221" y2="34.765" gradientUnits="userSpaceOnUse">
<stop stop-color="#E2E555"/>
<stop offset="1" stop-color="#A5BD3C"/>
</linearGradient>
<linearGradient id="paint12_linear_6_42" x1="19.3693" y1="39.4648" x2="19.3693" y2="19.4376" gradientUnits="userSpaceOnUse">
<stop stop-color="#E2E555"/>
<stop offset="1" stop-color="#A5BD3C"/>
</linearGradient>
<linearGradient id="paint13_linear_6_42" x1="7.10753" y1="42.6053" x2="1.22365" y2="29.7122" gradientUnits="userSpaceOnUse">
<stop stop-color="#E2E555"/>
<stop offset="1" stop-color="#A5BD3C"/>
</linearGradient>
<linearGradient id="paint14_linear_6_42" x1="11.5744" y1="7.61418" x2="12.9509" y2="7.61418" gradientUnits="userSpaceOnUse">
<stop stop-color="#E2E555"/>
<stop offset="1" stop-color="#A5BD3C"/>
</linearGradient>
<linearGradient id="paint15_linear_6_42" x1="12.526" y1="18.8976" x2="9.28483" y2="2.18018" gradientUnits="userSpaceOnUse">
<stop stop-color="#E2E555"/>
<stop offset="1" stop-color="#A5BD3C"/>
</linearGradient>
<linearGradient id="paint16_linear_6_42" x1="8.73382" y1="12.6789" x2="3.33439" y2="24.0092" gradientUnits="userSpaceOnUse">
<stop stop-color="#E2E555"/>
<stop offset="1" stop-color="#A5BD3C"/>
</linearGradient>
<linearGradient id="paint17_linear_6_42" x1="4.17853" y1="31.7465" x2="5.17815" y2="21.7493" gradientUnits="userSpaceOnUse">
<stop stop-color="#E2E555"/>
<stop offset="1" stop-color="#A5BD3C"/>
</linearGradient>
</defs>
</svg>
