<svg width="202" height="32" viewBox="0 0 202 32" fill="none" xmlns="http://www.w3.org/2000/svg">
<path fill-rule="evenodd" clip-rule="evenodd" d="M26.6538 28.7053L23.2068 22.7469C23.1082 22.5767 22.8925 22.5188 22.7238 22.6193C21.9227 23.0974 19.6341 24.3236 17.2405 24.3236C14.8624 24.3236 12.6566 23.1128 11.8698 22.6283C11.7 22.524 11.4794 22.5816 11.3811 22.7548L7.98725 28.7061C7.89803 28.8627 7.94133 29.0599 8.08702 29.1665C8.9706 29.8106 12.1616 31.8372 17.3218 31.8372C22.4791 31.8372 25.6693 29.8125 26.5552 29.1676C26.7016 29.0607 26.7445 28.8623 26.6538 28.7053Z" fill="#FFA600"/>
<path fill-rule="evenodd" clip-rule="evenodd" d="M17.3219 0C7.8525 0 0.157064 7.59793 3.7522e-05 17.03C-0.00255913 17.1915 0.129959 17.324 0.291464 17.324H34.3523C34.5138 17.324 34.6463 17.1915 34.6437 17.03C34.4867 7.59793 26.7916 0 17.3219 0Z" fill="#FFA600"/>
<path fill-rule="evenodd" clip-rule="evenodd" d="M59.0192 12.2378H54.9202V24.2823H51.8516V12.2378H47.753V9.35822H59.0192V12.2378Z" fill="white"/>
<path fill-rule="evenodd" clip-rule="evenodd" d="M63.0557 14.2767C63.623 13.5203 64.6745 13.0159 66.1036 13.0159C68.7517 13.0159 70.16 14.7815 70.16 17.4089V24.2821H67.1758V17.7451C67.1758 16.4628 66.6291 15.58 65.3051 15.58C63.8542 15.58 63.0557 16.4835 63.0557 17.9973V24.2821H60.0706V9.35846H63.0557V14.2767Z" fill="white"/>
<path fill-rule="evenodd" clip-rule="evenodd" d="M74.6799 17.4928H79.6825C79.4724 16.2531 78.5685 15.4121 77.1816 15.4121C75.8154 15.4121 74.9322 16.2313 74.6799 17.4928ZM74.6378 19.6368C74.8482 21.1502 75.8154 21.9698 77.3073 21.9698C78.2112 21.9698 79.073 21.5708 79.4302 20.7719H82.4364C81.7843 22.9998 79.7664 24.5343 77.2234 24.5343C73.965 24.5343 71.6742 22.1381 71.6742 18.7544C71.6742 15.4956 73.9443 13.0158 77.2019 13.0158C80.4603 13.0158 82.6675 15.4956 82.6675 18.7544C82.6675 19.2378 82.625 19.6368 82.625 19.6368H74.6378Z" fill="white"/>
<path fill-rule="evenodd" clip-rule="evenodd" d="M101.185 24.2822H98.1161V18.1235H91.8731V24.2822H88.8041V9.35812H91.8731V15.3067H98.1161V9.35812H101.185V24.2822Z" fill="white"/>
<path fill-rule="evenodd" clip-rule="evenodd" d="M108.795 21.9068C110.371 21.9068 111.59 20.7507 111.59 18.775C111.59 16.7996 110.371 15.6431 108.795 15.6431C107.218 15.6431 105.999 16.7996 105.999 18.775C105.999 20.7507 107.218 21.9068 108.795 21.9068ZM103.014 18.775C103.014 15.6431 105.263 13.0157 108.795 13.0157C112.326 13.0157 114.575 15.6431 114.575 18.775C114.575 21.9068 112.326 24.5342 108.795 24.5342C105.263 24.5342 103.014 21.9068 103.014 18.775Z" fill="white"/>
<path fill-rule="evenodd" clip-rule="evenodd" d="M116.089 19.5737V13.2679H119.074V19.6159C119.074 21.1504 119.768 21.8646 121.091 21.8646C122.416 21.8646 123.109 21.1504 123.109 19.6159V13.2679H126.094V19.5737C126.094 23.1468 124.307 24.5345 121.091 24.5345C117.875 24.5345 116.089 23.1468 116.089 19.5737Z" fill="white"/>
<path fill-rule="evenodd" clip-rule="evenodd" d="M127.44 20.709H130.467C130.508 21.4446 131.055 22.1381 132.296 22.1381C133.431 22.1381 134.019 21.7387 134.019 21.1292C134.019 19.2796 127.903 21.0241 127.903 16.6522C127.903 14.6554 129.605 13.0158 132.317 13.0158C135.617 13.0158 136.752 15.1177 136.836 16.7365H133.956C133.893 16.0423 133.367 15.4121 132.296 15.4121C131.329 15.4121 130.782 15.874 130.782 16.4835C130.782 18.3339 136.878 16.4835 136.878 21.003C136.878 22.9791 135.196 24.5343 132.211 24.5343C128.764 24.5343 127.587 22.7687 127.44 20.709Z" fill="white"/>
<path fill-rule="evenodd" clip-rule="evenodd" d="M140.725 17.4928H145.727C145.517 16.2531 144.613 15.4121 143.226 15.4121C141.86 15.4121 140.977 16.2313 140.725 17.4928ZM140.683 19.6368C140.893 21.1502 141.86 21.9698 143.352 21.9698C144.256 21.9698 145.118 21.5708 145.475 20.7719H148.481C147.829 22.9998 145.811 24.5343 143.268 24.5343C140.01 24.5343 137.719 22.1381 137.719 18.7544C137.719 15.4956 139.989 13.0158 143.247 13.0158C146.505 13.0158 148.712 15.4956 148.712 18.7544C148.712 19.2378 148.67 19.6368 148.67 19.6368H140.683Z" fill="white"/>
<path fill-rule="evenodd" clip-rule="evenodd" d="M154.033 24.2836V9.45145H163.873V12.2509H157.083V15.3635H163.559V18.1626H157.083V24.2836H154.033Z" fill="white"/>
<path fill-rule="evenodd" clip-rule="evenodd" d="M165.501 19.6042V13.3371H168.468V19.646C168.468 21.1711 169.157 21.8811 170.473 21.8811C171.789 21.8811 172.479 21.1711 172.479 19.646V13.3371H175.445V19.6042C175.445 23.1554 173.67 24.5345 170.473 24.5345C167.277 24.5345 165.501 23.1554 165.501 19.6042Z" fill="white"/>
<path fill-rule="evenodd" clip-rule="evenodd" d="M180.792 14.6739C181.294 13.7338 182.422 13.0863 184.051 13.0863C186.683 13.0863 188.083 14.841 188.083 17.4522V24.2837H185.117V17.7869C185.117 16.5126 184.574 15.635 183.258 15.635C181.816 15.635 181.022 16.5544 181.022 18.0162V24.2837H178.055V13.337H180.792V14.6739Z" fill="white"/>
<path fill-rule="evenodd" clip-rule="evenodd" d="M195.666 15.6976C194.015 15.6976 192.971 17.0345 192.971 18.8103C192.971 20.5861 194.015 21.923 195.666 21.923C197.316 21.923 198.36 20.5861 198.36 18.8103C198.36 17.0345 197.316 15.6976 195.666 15.6976ZM198.277 8.61584H201.243V24.2838H198.506V22.9466C197.817 23.9491 196.585 24.5345 195.039 24.5345C191.863 24.5345 190.004 21.9858 190.004 18.8103C190.004 15.6348 191.863 13.0864 195.039 13.0864C196.585 13.0864 197.712 13.7547 198.277 14.5069V8.61584Z" fill="white"/>
</svg>
