<svg width="173" height="43" viewBox="0 0 173 43" fill="none" xmlns="http://www.w3.org/2000/svg">
<path fill-rule="evenodd" clip-rule="evenodd" d="M26.9945 25.9201L12.0216 0H0L24.835 43L34.673 25.9441L21.8836 3.77151L19.7 0H15.3809L30.3299 25.9441L24.835 35.481L6.52668 3.77151H9.86201L24.835 29.6676L26.9945 25.9201Z" fill="#002FA7"/>
<path fill-rule="evenodd" clip-rule="evenodd" d="M29.082 10.4737L36.3525 23.0374L49.6458 0H35.0088H30.7377L36.3285 9.75307L38.4881 6.00559L37.1924 3.77151H43.1192L36.3525 15.5184L33.4011 10.4257L27.3783 0H23.0592L29.082 10.4737Z" fill="#002FA7"/>
<path d="M88.7096 18.281V10.2576H91.1331V23.1576H89.6214V23.1816L82.8548 14.4855V23.1816H80.4313V10.2816H82.3989L88.7096 18.281ZM105.554 10.3056H107.954V17.6805C107.954 19.5302 107.45 20.9475 106.418 21.9565C105.41 22.9414 104.042 23.4458 102.363 23.4458C100.731 23.4458 99.3634 22.9414 98.2837 21.9565C97.2039 20.9715 96.652 19.5302 96.652 17.6805V10.3056H99.0515V17.6805C99.0515 18.8335 99.3634 19.6984 99.9633 20.3229C100.563 20.9475 101.379 21.2358 102.387 21.2358C103.371 21.2358 104.162 20.9235 104.714 20.2989C105.266 19.6743 105.53 18.8095 105.53 17.6805V10.3056H105.554ZM123.527 12.3956L121.607 13.3805C121.367 12.9961 120.983 12.6598 120.407 12.3715C119.855 12.0833 119.231 11.9391 118.56 11.9391C117.696 11.9391 117.024 12.1073 116.568 12.4196C116.112 12.7319 115.896 13.1403 115.896 13.6447C115.896 14.0051 116.04 14.2933 116.328 14.5095C116.616 14.7257 116.952 14.8939 117.312 14.99C117.696 15.0861 118.176 15.1822 118.776 15.2542C119.375 15.3263 119.903 15.4224 120.359 15.5185C120.815 15.6146 121.271 15.7587 121.751 15.9749C122.231 16.1671 122.615 16.4073 122.927 16.6956C123.239 16.9598 123.479 17.3442 123.671 17.8006C123.862 18.257 123.958 18.7855 123.958 19.3861C123.958 20.2989 123.695 21.0917 123.191 21.7162C122.687 22.3408 122.015 22.7972 121.223 23.0855C120.431 23.3498 119.543 23.4939 118.56 23.4939C115.68 23.4939 113.809 22.4369 112.945 20.3229L114.96 19.266C115.224 19.9386 115.704 20.443 116.352 20.8034C117 21.1397 117.744 21.3079 118.584 21.3079C119.423 21.3079 120.143 21.1397 120.695 20.8274C121.247 20.5151 121.535 20.0347 121.535 19.362C121.535 18.3051 120.551 17.6805 118.56 17.4643C117.816 17.3682 117.168 17.2721 116.64 17.128C116.112 16.9838 115.584 16.7676 115.056 16.5034C114.552 16.2151 114.144 15.8308 113.881 15.3503C113.617 14.8699 113.497 14.2693 113.497 13.5727C113.497 12.7319 113.761 12.0352 114.264 11.4347C114.768 10.8341 115.392 10.4257 116.112 10.1855C116.832 9.94528 117.624 9.82517 118.464 9.80115C121.007 9.84919 122.687 10.69 123.527 12.3956ZM137.996 10.3056H140.395V17.6805C140.395 19.5302 139.891 20.9475 138.859 21.9565C137.852 22.9414 136.484 23.4458 134.804 23.4458C133.173 23.4458 131.805 22.9414 130.725 21.9565C129.645 20.9715 129.093 19.5302 129.093 17.6805V10.3056H131.493V17.6805C131.493 18.8335 131.805 19.6984 132.405 20.3229C133.005 20.9475 133.82 21.2358 134.828 21.2358C135.812 21.2358 136.604 20.9235 137.156 20.2989C137.708 19.6743 137.972 18.8095 137.972 17.6805V10.3056H137.996ZM147.378 23.1576H144.738L150.521 10.2816H153.161L158.943 23.1576H156.304L151.865 12.9961L147.378 23.1576ZM163.167 10.2816H165.59V20.9235H172.213V23.1576H163.167V10.2816ZM72.1529 10.3056H74.5524V17.6805C74.5524 19.5302 74.0485 20.9475 73.0168 21.9565C72.009 22.9414 70.6412 23.4458 68.9616 23.4458C67.3299 23.4458 65.9622 22.9414 64.8824 21.9565C63.8026 20.9715 63.2507 19.5302 63.2507 17.6805V10.3056H65.6502V17.6805C65.6502 18.8335 65.9622 19.6984 66.5621 20.3229C67.1619 20.9475 67.9778 21.2358 68.9856 21.2358C69.9694 21.2358 70.7612 20.9235 71.3131 20.2989C71.865 19.6743 72.1289 18.8095 72.1289 17.6805V10.3056H72.1529Z" fill="#002FA7"/>
<path d="M154.313 28.1541L153.425 28.6106C153.305 28.4184 153.137 28.2743 152.873 28.1301C152.609 28.01 152.321 27.9379 152.009 27.9379C151.601 27.9379 151.289 28.01 151.073 28.1541C150.857 28.2983 150.761 28.4905 150.761 28.7307C150.761 28.8988 150.833 29.043 150.953 29.1391C151.073 29.2352 151.241 29.3312 151.409 29.3553C151.577 29.4033 151.817 29.4514 152.081 29.4754C152.369 29.4994 152.609 29.5474 152.825 29.5955C153.041 29.6435 153.257 29.7156 153.473 29.8117C153.689 29.9078 153.881 30.0279 154.025 30.148C154.169 30.2681 154.289 30.4363 154.361 30.6525C154.457 30.8687 154.505 31.1089 154.505 31.3972C154.505 31.8296 154.385 32.1899 154.145 32.4782C153.905 32.7664 153.593 32.9826 153.233 33.1028C152.873 33.2229 152.441 33.2949 151.985 33.2949C150.641 33.2949 149.778 32.8145 149.37 31.8296L150.305 31.3491C150.425 31.6614 150.641 31.9016 150.953 32.0698C151.265 32.2379 151.601 32.31 151.985 32.31C152.369 32.31 152.705 32.2379 152.969 32.0938C153.233 31.9497 153.353 31.7095 153.353 31.4212C153.353 30.9407 152.897 30.6285 151.961 30.5324C151.601 30.4843 151.313 30.4363 151.073 30.3642C150.833 30.2921 150.569 30.196 150.329 30.0759C150.089 29.9558 149.897 29.7636 149.778 29.5474C149.658 29.3072 149.586 29.043 149.586 28.7307C149.586 28.3463 149.706 28.01 149.945 27.7458C150.185 27.4815 150.473 27.2893 150.809 27.1692C151.145 27.0491 151.505 27.0011 151.913 27.0011C153.137 26.953 153.929 27.3374 154.313 28.1541ZM144.883 32.0458V33.1508H140.395V27.1452H144.883V28.2502H141.523V29.6195H144.763V30.6765H141.523V32.0217H144.883V32.0458ZM133.533 28.2022H131.805V30.124H133.533C133.869 30.124 134.133 30.0279 134.301 29.8357C134.469 29.6435 134.565 29.4273 134.565 29.1631C134.565 28.8988 134.469 28.6826 134.301 28.4905C134.133 28.2983 133.869 28.2022 133.533 28.2022ZM136.004 33.0787V33.1508H134.661L132.909 31.1329H131.829V33.1508H130.701V27.1452C131.013 27.1452 131.493 27.1452 132.141 27.1452C132.765 27.1452 133.245 27.1452 133.557 27.1452C134.229 27.1452 134.757 27.3374 135.14 27.7217C135.524 28.1061 135.716 28.5865 135.716 29.115C135.716 29.5715 135.596 29.9798 135.356 30.3162C135.116 30.6525 134.733 30.8927 134.205 30.9888L136.004 33.0787ZM124.511 27.1692H125.638V30.6044C125.638 31.4692 125.398 32.1419 124.919 32.5983C124.439 33.0547 123.815 33.2949 123.023 33.2949C122.255 33.2949 121.631 33.0547 121.127 32.5983C120.623 32.1419 120.359 31.4692 120.359 30.6044V27.1692H121.487V30.6044C121.487 31.1329 121.631 31.5413 121.895 31.8296C122.183 32.1178 122.543 32.262 123.023 32.262C123.479 32.262 123.839 32.1178 124.103 31.8296C124.367 31.5413 124.487 31.1329 124.487 30.6044V27.1692H124.511ZM112.705 33.1508V28.1782H110.809V27.1452H115.752V28.1782H113.857V33.1508H112.705ZM105.027 30.8687V27.1452H106.154V33.1508H105.458L102.315 29.091V33.1508H101.187V27.1452H102.099L105.027 30.8687ZM96.2683 32.0458V33.1508H91.7812V27.1452H96.2683V28.2502H92.909V29.6195H96.1483V30.6765H92.909V32.0217H96.2683V32.0458ZM87.1501 27.1452L84.6547 33.1748H83.4789L80.9834 27.1452H82.2551L84.0548 31.8055L85.8784 27.1452H87.1501Z" fill="#002FA7"/>
</svg>
