<?xml version="1.0" standalone="no"?>
<!DOCTYPE svg PUBLIC "-//W3C//DTD SVG 20010904//EN"
 "http://www.w3.org/TR/2001/REC-SVG-20010904/DTD/svg10.dtd">
<svg version="1.0" xmlns="http://www.w3.org/2000/svg"
 width="1649.000000pt" height="1649.000000pt" viewBox="0 0 1649.000000 1649.000000"
 preserveAspectRatio="xMidYMid meet">
<metadata>
Created by potrace 1.14, written by Peter Selinger 2001-2017
</metadata>
<g transform="translate(0.000000,1649.000000) scale(0.100000,-0.100000)"
fill="#000000" stroke="none">
<path d="M5120 11979 c-654 -67 -1218 -331 -1548 -724 -288 -343 -432 -775
-433 -1295 0 -314 74 -574 232 -815 68 -104 241 -275 350 -348 544 -361 1327
-334 2021 72 58 33 110 61 116 61 19 0 52 -66 72 -146 44 -171 164 -1160 158
-1299 -6 -151 -28 -183 -360 -522 -114 -117 -248 -259 -297 -316 -79 -90 -100
-108 -158 -135 -41 -19 -110 -39 -173 -50 l-104 -18 -8 -35 c-23 -101 26 -186
139 -243 28 -14 79 -49 113 -77 67 -56 190 -204 190 -229 0 -43 -119 -125
-475 -330 -669 -385 -837 -492 -967 -620 -76 -75 -89 -92 -105 -145 -28 -95
-24 -271 11 -410 32 -133 85 -269 106 -273 8 -1 47 22 85 52 69 53 741 487
1130 729 1178 733 2215 1212 3295 1522 1326 380 2742 502 4230 364 652 -60
1342 -173 2013 -330 92 -21 172 -39 177 -39 6 0 10 14 10 32 0 123 -384 284
-1047 438 -694 161 -1895 355 -2543 410 -266 22 -243 18 -260 53 -8 18 -40 49
-73 72 l-59 40 -151 0 c-144 0 -155 1 -210 27 -118 55 -229 160 -447 422 -140
169 -163 208 -205 353 -55 195 -87 402 -135 873 -41 400 -56 473 -133 625 -42
84 -146 220 -158 208 -19 -19 -92 -358 -178 -829 -60 -328 -58 -364 39 -669
28 -88 62 -216 76 -285 39 -195 87 -282 248 -449 212 -219 442 -362 644 -401
56 -10 107 -22 112 -25 17 -11 12 -73 -8 -84 -38 -20 -148 -32 -387 -42 -288
-12 -335 -8 -335 24 -1 40 -38 107 -65 117 -15 6 -112 12 -217 15 -104 3 -194
8 -199 11 -27 16 -347 537 -426 694 -64 127 -68 258 -13 540 36 187 51 223
176 420 158 248 157 245 190 529 39 341 60 419 125 474 55 47 204 123 427 216
264 111 259 107 198 136 -78 37 -119 145 -141 367 -16 168 -30 204 -92 233
-44 21 -142 16 -215 -11 l-47 -18 -27 24 c-58 55 -94 172 -94 309 0 106 27
289 47 320 8 12 43 36 78 52 104 47 212 71 430 95 84 9 133 68 88 105 -27 23
-537 19 -668 -5 -286 -52 -487 -150 -612 -298 -49 -58 -100 -169 -118 -253
-21 -100 -30 -373 -16 -463 20 -129 42 -151 169 -171 41 -6 92 -21 114 -32 73
-37 196 -169 186 -199 -2 -8 -84 -12 -263 -13 l-260 -2 -330 -112 c-181 -61
-481 -166 -665 -233 -419 -153 -575 -206 -815 -276 -291 -84 -457 -142 -516
-177 -30 -18 -124 -85 -210 -149 -375 -281 -638 -413 -999 -502 -226 -55 -348
-69 -535 -63 -119 4 -181 11 -240 27 -376 101 -649 410 -741 837 -21 101 -21
456 2 615 33 240 124 462 263 642 56 72 204 216 285 277 364 274 844 430 1320
430 189 -1 313 -16 450 -56 394 -115 598 -374 584 -743 -3 -88 -8 -117 -29
-162 -51 -110 -133 -161 -284 -180 -190 -23 -271 9 -470 186 -107 94 -132 102
-183 59 -80 -67 -55 -292 46 -406 66 -75 177 -116 342 -126 365 -21 637 104
757 347 68 136 87 233 87 435 1 194 -10 247 -74 381 -141 292 -475 496 -920
559 -114 16 -352 18 -490 4z m3077 -2787 c12 -28 13 -62 8 -171 -5 -98 -2
-182 10 -301 10 -91 20 -286 24 -435 l6 -270 42 -85 c55 -111 151 -237 293
-384 113 -117 328 -309 444 -396 50 -38 56 -45 40 -52 -11 -4 -91 -21 -179
-38 -233 -46 -730 -162 -986 -230 -122 -33 -229 -60 -239 -60 -31 0 -54 37
-54 88 1 89 72 215 283 502 67 91 135 193 153 228 29 59 31 69 31 175 -1 197
-45 346 -113 379 -46 23 -179 45 -348 59 -195 15 -332 0 -378 -43 -32 -29
-125 -267 -126 -321 0 -25 2 -49 5 -54 4 -6 35 -20 69 -33 100 -36 236 -109
264 -143 25 -29 26 -36 20 -99 -9 -99 -71 -390 -112 -525 -43 -143 -120 -306
-166 -351 -22 -21 -81 -52 -164 -86 -160 -66 -267 -115 -654 -295 -332 -156
-511 -233 -579 -251 -42 -11 -46 -10 -63 12 -54 69 -113 295 -106 404 3 54 8
68 33 95 50 52 151 121 380 261 287 175 381 236 490 318 112 85 246 222 280
289 34 68 308 1059 371 1341 23 105 46 127 156 150 68 13 84 8 63 -23 -37 -58
-127 -503 -104 -517 6 -5 75 -18 152 -30 113 -18 167 -21 286 -17 318 10 347
59 370 622 9 225 18 282 49 317 19 22 30 15 49 -30z"/>
<path d="M9926 11669 c-20 -16 -26 -29 -26 -59 0 -55 36 -163 62 -187 47 -43
173 -89 295 -108 22 -4 48 -14 56 -23 22 -25 55 -142 69 -243 l12 -89 -40 -41
c-49 -51 -122 -86 -204 -100 -36 -6 -69 -15 -74 -19 -10 -10 1 -59 19 -84 14
-18 19 -18 72 -7 32 7 80 24 108 37 27 13 50 22 52 20 8 -8 -70 -85 -145 -143
-163 -125 -212 -172 -212 -201 1 -38 34 -75 60 -67 48 15 247 189 335 292 101
118 113 149 127 309 16 201 -6 362 -59 424 -38 46 -69 57 -183 70 -165 18
-199 42 -219 151 -6 34 -16 67 -22 75 -17 20 -52 17 -83 -7z"/>
<path d="M9592 11357 c-30 -32 -45 -84 -29 -104 53 -66 90 -84 133 -64 33 15
47 56 39 114 -9 75 -11 77 -69 77 -42 0 -57 -5 -74 -23z"/>
</g>
</svg>
